<svg data-v-fde0c5aa="" xmlns="http://www.w3.org/2000/svg" viewBox="0 0 300 300" class="iconLeft"><!----><defs data-v-fde0c5aa=""><linearGradient data-v-fde0c5aa="" gradientTransform="rotate(25)" id="6fa30f6d-996f-4901-a3bc-117dbc0c65e1" x1="0%" y1="0%" x2="100%" y2="0%"><stop data-v-fde0c5aa="" offset="0%" stop-color="#0015D6" stop-opacity="1"></stop><stop data-v-fde0c5aa="" offset="100%" stop-color="#0989FB" stop-opacity="1"></stop></linearGradient></defs><rect data-v-fde0c5aa="" fill="url(#6fa30f6d-996f-4901-a3bc-117dbc0c65e1)" x="0" y="0" width="300px" height="300px" class="logo-background-square"></rect><defs data-v-fde0c5aa=""><!----></defs><g data-v-fde0c5aa="" id="ab50637a-7c17-4663-adbc-ee650a5906e2" fill="#ffffff" transform="matrix(2.265389876880985,0,0,2.265389876880985,88.4193728638739,123.48361058372153)"><path d="M3.08 15.52L4.55 15.52L4.55 15.52Q5.52 15.52 6.27 15.50L6.27 15.50L6.27 15.50Q7.02 15.49 7.42 15.42L7.42 15.42L7.42 17.09L1.03 17.09L1.03 17.09Q1.10 16.68 1.11 15.90L1.11 15.90L1.11 15.90Q1.13 15.13 1.13 14.12L1.13 14.12L1.13 10.08L1.13 10.08Q1.13 9.07 1.11 8.30L1.11 8.30L1.11 8.30Q1.10 7.52 1.03 7.11L1.03 7.11L3.08 7.11L3.08 15.52ZM14.63 14.01L10.21 14.01L10.21 14.01Q10.28 14.90 10.72 15.30L10.72 15.30L10.72 15.30Q11.15 15.69 11.92 15.69L11.92 15.69L11.92 15.69Q12.60 15.69 13.24 15.53L13.24 15.53L13.24 15.53Q13.88 15.38 14.52 15.00L14.52 15.00L14.66 16.58L14.66 16.58Q14.29 16.76 13.94 16.89L13.94 16.89L13.94 16.89Q13.59 17.02 13.24 17.10L13.24 17.10L13.24 17.10Q12.89 17.19 12.52 17.22L12.52 17.22L12.52 17.22Q12.15 17.26 11.75 17.26L11.75 17.26L11.75 17.26Q11.07 17.26 10.46 17.03L10.46 17.03L10.46 17.03Q9.84 16.80 9.37 16.35L9.37 16.35L9.37 16.35Q8.89 15.91 8.62 15.24L8.62 15.24L8.62 15.24Q8.34 14.58 8.34 13.71L8.34 13.71L8.34 13.71Q8.34 12.86 8.58 12.17L8.58 12.17L8.58 12.17Q8.81 11.48 9.26 11.00L9.26 11.00L9.26 11.00Q9.70 10.51 10.33 10.24L10.33 10.24L10.33 10.24Q10.96 9.98 11.75 9.98L11.75 9.98L11.75 9.98Q12.33 9.98 12.76 10.12L12.76 10.12L12.76 10.12Q13.19 10.26 13.51 10.50L13.51 10.50L13.51 10.50Q13.83 10.75 14.04 11.08L14.04 11.08L14.04 11.08Q14.26 11.41 14.39 11.80L14.39 11.80L14.39 11.80Q14.51 12.18 14.57 12.61L14.57 12.61L14.57 12.61Q14.62 13.03 14.62 13.45L14.62 13.45L14.62 13.58L14.62 13.58Q14.62 13.65 14.63 13.73L14.63 13.73L14.63 13.73Q14.63 13.82 14.63 13.89L14.63 13.89L14.63 14.01ZM11.66 11.42L11.66 11.42L11.66 11.42Q11.06 11.42 10.72 11.73L10.72 11.73L10.72 11.73Q10.37 12.05 10.25 12.78L10.25 12.78L12.89 12.78L12.89 12.78Q12.89 12.06 12.57 11.74L12.57 11.74L12.57 11.74Q12.26 11.42 11.66 11.42ZM20.82 11.59L18.73 11.59L18.73 13.93L18.73 13.93Q18.73 14.51 18.78 14.86L18.78 14.86L18.78 14.86Q18.83 15.20 18.93 15.39L18.93 15.39L18.93 15.39Q19.04 15.57 19.20 15.63L19.20 15.63L19.20 15.63Q19.37 15.68 19.60 15.68L19.60 15.68L19.60 15.68Q19.86 15.68 20.18 15.55L20.18 15.55L20.18 15.55Q20.51 15.42 20.92 15.17L20.92 15.17L20.92 16.70L20.92 16.70Q20.43 17.01 19.98 17.13L19.98 17.13L19.98 17.13Q19.53 17.26 19.16 17.26L19.16 17.26L19.16 17.26Q18.68 17.26 18.25 17.17L18.25 17.17L18.25 17.17Q17.82 17.08 17.50 16.84L17.50 16.84L17.50 16.84Q17.19 16.61 17.00 16.23L17.00 16.23L17.00 16.23Q16.82 15.84 16.82 15.24L16.82 15.24L16.82 11.59L15.52 11.59L15.52 10.22L16.82 10.22L16.82 8.07L18.73 8.07L18.73 10.22L20.82 10.22L20.82 11.59ZM24.10 9.95L22.90 9.95L22.90 9.95Q22.89 9.58 22.88 9.20L22.88 9.20L22.88 9.20Q22.87 8.81 22.85 8.37L22.85 8.37L22.85 8.37Q22.83 7.92 22.78 7.40L22.78 7.40L22.78 7.40Q22.74 6.88 22.66 6.25L22.66 6.25L24.34 6.25L24.34 6.25Q24.26 6.88 24.22 7.40L24.22 7.40L24.22 7.40Q24.18 7.92 24.15 8.37L24.15 8.37L24.15 8.37Q24.13 8.81 24.12 9.20L24.12 9.20L24.12 9.20Q24.11 9.58 24.10 9.95L24.10 9.95ZM31.82 10.53L31.55 12.16L31.55 12.16Q31.36 12.06 31.12 11.95L31.12 11.95L31.12 11.95Q30.87 11.83 30.58 11.74L30.58 11.74L30.58 11.74Q30.30 11.64 29.97 11.58L29.97 11.58L29.97 11.58Q29.65 11.51 29.29 11.51L29.29 11.51L29.29 11.51Q28.99 11.51 28.79 11.57L28.79 11.57L28.79 11.57Q28.59 11.62 28.46 11.70L28.46 11.70L28.46 11.70Q28.34 11.79 28.29 11.89L28.29 11.89L28.29 11.89Q28.23 12.00 28.23 12.10L28.23 12.10L28.23 12.10Q28.23 12.22 28.28 12.32L28.28 12.32L28.28 12.32Q28.32 12.41 28.46 12.50L28.46 12.50L28.46 12.50Q28.61 12.58 28.88 12.65L28.88 12.65L28.88 12.65Q29.15 12.73 29.60 12.82L29.60 12.82L29.60 12.82Q30.13 12.93 30.60 13.09L30.60 13.09L30.60 13.09Q31.08 13.25 31.43 13.50L31.43 13.50L31.43 13.50Q31.79 13.75 31.99 14.10L31.99 14.10L31.99 14.10Q32.20 14.45 32.20 14.94L32.20 14.94L32.20 14.94Q32.20 15.43 31.96 15.85L31.96 15.85L31.96 15.85Q31.73 16.28 31.33 16.59L31.33 16.59L31.33 16.59Q30.93 16.91 30.39 17.08L30.39 17.08L30.39 17.08Q29.85 17.26 29.22 17.26L29.22 17.26L29.22 17.26Q28.77 17.26 28.34 17.20L28.34 17.20L28.34 17.20Q27.91 17.14 27.54 17.03L27.54 17.03L27.54 17.03Q27.16 16.92 26.85 16.78L26.85 16.78L26.85 16.78Q26.54 16.63 26.32 16.47L26.32 16.47L26.69 14.81L26.69 14.81Q26.95 15.01 27.27 15.18L27.27 15.18L27.27 15.18Q27.59 15.35 27.93 15.48L27.93 15.48L27.93 15.48Q28.27 15.60 28.62 15.66L28.62 15.66L28.62 15.66Q28.96 15.73 29.26 15.73L29.26 15.73L29.26 15.73Q29.50 15.73 29.70 15.68L29.70 15.68L29.70 15.68Q29.90 15.63 30.04 15.54L30.04 15.54L30.04 15.54Q30.19 15.45 30.27 15.34L30.27 15.34L30.27 15.34Q30.35 15.23 30.35 15.11L30.35 15.11L30.35 15.11Q30.35 14.96 30.28 14.83L30.28 14.83L30.28 14.83Q30.21 14.70 30.04 14.58L30.04 14.58L30.04 14.58Q29.86 14.46 29.55 14.36L29.55 14.36L29.55 14.36Q29.24 14.25 28.75 14.14L28.75 14.14L28.75 14.14Q28.01 13.99 27.56 13.78L27.56 13.78L27.56 13.78Q27.10 13.58 26.84 13.32L26.84 13.32L26.84 13.32Q26.58 13.07 26.48 12.78L26.48 12.78L26.48 12.78Q26.39 12.49 26.39 12.17L26.39 12.17L26.39 12.17Q26.39 12.00 26.44 11.77L26.44 11.77L26.44 11.77Q26.50 11.55 26.64 11.30L26.64 11.30L26.64 11.30Q26.77 11.06 26.99 10.82L26.99 10.82L26.99 10.82Q27.21 10.59 27.55 10.40L27.55 10.40L27.55 10.40Q27.88 10.21 28.32 10.10L28.32 10.10L28.32 10.10Q28.77 9.98 29.36 9.98L29.36 9.98L29.36 9.98Q29.78 9.98 30.14 10.03L30.14 10.03L30.14 10.03Q30.50 10.08 30.81 10.15L30.81 10.15L30.81 10.15Q31.12 10.23 31.37 10.33L31.37 10.33L31.37 10.33Q31.62 10.43 31.82 10.53L31.82 10.53ZM43.82 7.55L43.51 9.37L43.51 9.37Q43.11 9.16 42.77 9.01L42.77 9.01L42.77 9.01Q42.42 8.87 42.10 8.77L42.10 8.77L42.10 8.77Q41.78 8.67 41.46 8.63L41.46 8.63L41.46 8.63Q41.14 8.58 40.78 8.58L40.78 8.58L40.78 8.58Q40.46 8.58 40.19 8.68L40.19 8.68L40.19 8.68Q39.92 8.78 39.73 8.93L39.73 8.93L39.73 8.93Q39.53 9.09 39.42 9.29L39.42 9.29L39.42 9.29Q39.31 9.50 39.31 9.71L39.31 9.71L39.31 9.71Q39.31 9.93 39.39 10.10L39.39 10.10L39.39 10.10Q39.47 10.27 39.70 10.44L39.70 10.44L39.70 10.44Q39.94 10.60 40.35 10.76L40.35 10.76L40.35 10.76Q40.76 10.93 41.44 11.14L41.44 11.14L41.44 11.14Q42.12 11.35 42.65 11.62L42.65 11.62L42.65 11.62Q43.18 11.89 43.53 12.23L43.53 12.23L43.53 12.23Q43.89 12.58 44.07 13.01L44.07 13.01L44.07 13.01Q44.25 13.44 44.25 13.98L44.25 13.98L44.25 13.98Q44.25 14.71 43.96 15.32L43.96 15.32L43.96 15.32Q43.67 15.92 43.17 16.35L43.17 16.35L43.17 16.35Q42.66 16.78 42.00 17.02L42.00 17.02L42.00 17.02Q41.33 17.26 40.57 17.26L40.57 17.26L40.57 17.26Q40.04 17.26 39.53 17.19L39.53 17.19L39.53 17.19Q39.03 17.12 38.58 17.00L38.58 17.00L38.58 17.00Q38.13 16.88 37.75 16.71L37.75 16.71L37.75 16.71Q37.37 16.54 37.08 16.34L37.08 16.34L37.43 14.46L37.43 14.46Q38.17 15.05 38.95 15.32L38.95 15.32L38.95 15.32Q39.74 15.59 40.57 15.59L40.57 15.59L40.57 15.59Q40.91 15.59 41.21 15.49L41.21 15.49L41.21 15.49Q41.52 15.40 41.76 15.23L41.76 15.23L41.76 15.23Q42 15.05 42.14 14.80L42.14 14.80L42.14 14.80Q42.29 14.55 42.29 14.22L42.29 14.22L42.29 14.22Q42.29 14.01 42.20 13.82L42.20 13.82L42.20 13.82Q42.12 13.62 41.86 13.44L41.86 13.44L41.86 13.44Q41.61 13.25 41.16 13.05L41.16 13.05L41.16 13.05Q40.70 12.85 39.96 12.61L39.96 12.61L39.96 12.61Q39.15 12.36 38.64 12.07L38.64 12.07L38.64 12.07Q38.14 11.77 37.85 11.43L37.85 11.43L37.85 11.43Q37.56 11.09 37.46 10.69L37.46 10.69L37.46 10.69Q37.36 10.30 37.36 9.84L37.36 9.84L37.36 9.84Q37.36 9.54 37.45 9.20L37.45 9.20L37.45 9.20Q37.54 8.87 37.72 8.54L37.72 8.54L37.72 8.54Q37.90 8.22 38.18 7.93L38.18 7.93L38.18 7.93Q38.46 7.64 38.85 7.42L38.85 7.42L38.85 7.42Q39.23 7.20 39.73 7.07L39.73 7.07L39.73 7.07Q40.23 6.94 40.84 6.94L40.84 6.94L40.84 6.94Q41.28 6.94 41.66 6.97L41.66 6.97L41.66 6.97Q42.04 7.01 42.40 7.08L42.40 7.08L42.40 7.08Q42.76 7.16 43.10 7.27L43.10 7.27L43.10 7.27Q43.45 7.39 43.82 7.55L43.82 7.55ZM47.80 13.13L47.80 17.09L45.89 17.09L45.89 9.37L45.89 9.37Q45.89 8.26 45.88 7.43L45.88 7.43L45.88 7.43Q45.86 6.60 45.79 6.15L45.79 6.15L47.80 6.15L47.80 11.28L47.80 11.28Q48.06 10.96 48.37 10.72L48.37 10.72L48.37 10.72Q48.68 10.47 49.02 10.31L49.02 10.31L49.02 10.31Q49.37 10.14 49.73 10.06L49.73 10.06L49.73 10.06Q50.10 9.98 50.47 9.98L50.47 9.98L50.47 9.98Q52.55 9.98 52.55 12.82L52.55 12.82L52.55 17.09L50.64 17.09L50.64 13.33L50.64 13.33Q50.64 12.83 50.58 12.51L50.58 12.51L50.58 12.51Q50.52 12.19 50.39 12.00L50.39 12.00L50.39 12.00Q50.26 11.81 50.06 11.73L50.06 11.73L50.06 11.73Q49.85 11.66 49.58 11.66L49.58 11.66L49.58 11.66Q49.29 11.66 49.01 11.79L49.01 11.79L49.01 11.79Q48.73 11.92 48.49 12.13L48.49 12.13L48.49 12.13Q48.25 12.34 48.07 12.60L48.07 12.60L48.07 12.60Q47.89 12.86 47.80 13.13L47.80 13.13ZM59.01 12.10L59.01 11.65L59.01 11.65Q58.87 11.61 58.60 11.56L58.60 11.56L58.60 11.56Q58.32 11.51 57.89 11.51L57.89 11.51L57.89 11.51Q57.35 11.51 56.98 11.74L56.98 11.74L56.98 11.74Q56.62 11.98 56.41 12.37L56.41 12.37L56.41 12.37Q56.19 12.76 56.10 13.25L56.10 13.25L56.10 13.25Q56.01 13.75 56.01 14.29L56.01 14.29L56.01 14.29Q56.01 14.59 56.06 14.83L56.06 14.83L56.06 14.83Q56.12 15.08 56.23 15.26L56.23 15.26L56.23 15.26Q56.33 15.44 56.46 15.53L56.46 15.53L56.46 15.53Q56.60 15.63 56.76 15.63L56.76 15.63L56.76 15.63Q57.01 15.63 57.28 15.43L57.28 15.43L57.28 15.43Q57.54 15.22 57.79 14.89L57.79 14.89L57.79 14.89Q58.04 14.56 58.27 14.16L58.27 14.16L58.27 14.16Q58.49 13.75 58.66 13.36L58.66 13.36L58.66 13.36Q58.82 12.97 58.92 12.63L58.92 12.63L58.92 12.63Q59.01 12.30 59.01 12.10L59.01 12.10ZM61.41 17.09L59.60 17.09L59.60 17.09Q59.52 16.97 59.45 16.71L59.45 16.71L59.45 16.71Q59.38 16.45 59.33 16.16L59.33 16.16L59.33 16.16Q59.28 15.86 59.25 15.57L59.25 15.57L59.25 15.57Q59.22 15.28 59.22 15.09L59.22 15.09L59.22 14.70L59.22 14.70Q59.00 15.14 58.70 15.60L58.70 15.60L58.70 15.60Q58.39 16.05 58.00 16.42L58.00 16.42L58.00 16.42Q57.61 16.79 57.15 17.02L57.15 17.02L57.15 17.02Q56.68 17.26 56.14 17.26L56.14 17.26L56.14 17.26Q55.71 17.26 55.34 17.07L55.34 17.07L55.34 17.07Q54.96 16.88 54.68 16.50L54.68 16.50L54.68 16.50Q54.41 16.13 54.25 15.57L54.25 15.57L54.25 15.57Q54.09 15.01 54.09 14.29L54.09 14.29L54.09 14.29Q54.09 13.47 54.33 12.70L54.33 12.70L54.33 12.70Q54.57 11.92 55.07 11.32L55.07 11.32L55.07 11.32Q55.57 10.71 56.34 10.35L56.34 10.35L56.34 10.35Q57.11 9.98 58.17 9.98L58.17 9.98L58.17 9.98Q58.92 9.98 59.65 10.07L59.65 10.07L59.65 10.07Q60.38 10.15 60.97 10.29L60.97 10.29L60.97 13.47L60.97 13.47Q60.97 14.76 61.09 15.64L61.09 15.64L61.09 15.64Q61.22 16.52 61.41 17.09L61.41 17.09ZM64.90 17.09L62.99 17.09L62.99 12.89L62.99 12.89Q62.99 11.87 62.87 11.17L62.87 11.17L62.87 11.17Q62.76 10.47 62.64 10.12L62.64 10.12L64.52 10.12L64.52 10.12Q64.57 10.23 64.61 10.40L64.61 10.40L64.61 10.40Q64.65 10.58 64.68 10.77L64.68 10.77L64.68 10.77Q64.72 10.96 64.74 11.14L64.74 11.14L64.80 11.45L64.80 11.45Q65.04 11.09 65.32 10.82L65.32 10.82L65.32 10.82Q65.60 10.55 65.89 10.36L65.89 10.36L65.89 10.36Q66.17 10.17 66.45 10.08L66.45 10.08L66.45 10.08Q66.72 9.98 66.95 9.98L66.95 9.98L66.95 9.98Q67.43 9.98 67.77 10.19L67.77 10.19L67.77 10.19Q68.11 10.39 68.32 10.74L68.32 10.74L68.32 10.74Q68.54 11.09 68.63 11.56L68.63 11.56L68.63 11.56Q68.73 12.02 68.73 12.54L68.73 12.54L67.20 12.78L67.20 12.78Q67.17 12.32 66.98 12.03L66.98 12.03L66.98 12.03Q66.79 11.75 66.35 11.75L66.35 11.75L66.35 11.75Q66.18 11.75 65.96 11.90L65.96 11.90L65.96 11.90Q65.75 12.05 65.54 12.29L65.54 12.29L65.54 12.29Q65.34 12.53 65.16 12.84L65.16 12.84L65.16 12.84Q64.99 13.15 64.90 13.47L64.90 13.47L64.90 17.09ZM75.70 14.01L71.29 14.01L71.29 14.01Q71.35 14.90 71.79 15.30L71.79 15.30L71.79 15.30Q72.22 15.69 72.99 15.69L72.99 15.69L72.99 15.69Q73.67 15.69 74.31 15.53L74.31 15.53L74.31 15.53Q74.95 15.38 75.59 15.00L75.59 15.00L75.74 16.58L75.74 16.58Q75.37 16.76 75.01 16.89L75.01 16.89L75.01 16.89Q74.66 17.02 74.31 17.10L74.31 17.10L74.31 17.10Q73.96 17.19 73.59 17.22L73.59 17.22L73.59 17.22Q73.22 17.26 72.82 17.26L72.82 17.26L72.82 17.26Q72.15 17.26 71.53 17.03L71.53 17.03L71.53 17.03Q70.91 16.80 70.44 16.35L70.44 16.35L70.44 16.35Q69.97 15.91 69.69 15.24L69.69 15.24L69.69 15.24Q69.41 14.58 69.41 13.71L69.41 13.71L69.41 13.71Q69.41 12.86 69.65 12.17L69.65 12.17L69.65 12.17Q69.88 11.48 70.33 11.00L70.33 11.00L70.33 11.00Q70.77 10.51 71.40 10.24L71.40 10.24L71.40 10.24Q72.03 9.98 72.82 9.98L72.82 9.98L72.82 9.98Q73.40 9.98 73.83 10.12L73.83 10.12L73.83 10.12Q74.27 10.26 74.58 10.50L74.58 10.50L74.58 10.50Q74.90 10.75 75.12 11.08L75.12 11.08L75.12 11.08Q75.33 11.41 75.46 11.80L75.46 11.80L75.46 11.80Q75.58 12.18 75.64 12.61L75.64 12.61L75.64 12.61Q75.69 13.03 75.69 13.45L75.69 13.45L75.69 13.58L75.69 13.58Q75.69 13.65 75.70 13.73L75.70 13.73L75.70 13.73Q75.70 13.82 75.70 13.89L75.70 13.89L75.70 14.01ZM72.73 11.42L72.73 11.42L72.73 11.42Q72.13 11.42 71.79 11.73L71.79 11.73L71.79 11.73Q71.44 12.05 71.33 12.78L71.33 12.78L73.96 12.78L73.96 12.78Q73.96 12.06 73.65 11.74L73.65 11.74L73.65 11.74Q73.34 11.42 72.73 11.42Z"></path></g><defs data-v-fde0c5aa=""><!----></defs><g data-v-fde0c5aa="" id="215dbc3a-ad3a-49b2-ac90-dca636c2991d" stroke="none" fill="#ffffff" transform="matrix(0.3775272437224799,0,0,0.3775272437224799,40,131.123637813876)"><path d="M87.5 75c-3.039 0-5.725 1.221-7.886 3.016l-19.056-13.6c1.209-2.49 1.941-5.225 1.941-8.166 0-4.041-1.318-7.775-3.491-10.828l22.29-22.302C83.154 24.207 85.193 25 87.5 25c6.909 0 12.5-5.591 12.5-12.5S94.409 0 87.5 0 75 5.591 75 12.5c0 2.307.793 4.346 1.88 6.201L54.59 41.004c-3.076-2.197-6.787-3.504-10.84-3.504-7.153 0-13.306 4.064-16.467 9.973l-15.052-5.029C11.621 39.637 9.24 37.5 6.25 37.5 2.795 37.5 0 40.295 0 43.75S2.795 50 6.25 50c1.574 0 2.979-.635 4.077-1.6l14.966 4.993c-.147.941-.293 1.88-.293 2.857C25 66.602 33.398 75 43.75 75c5.151 0 9.826-2.088 13.221-5.457l18.933 13.514C75.366 84.448 75 85.926 75 87.5c0 6.896 5.591 12.5 12.5 12.5S100 94.396 100 87.5 94.409 75 87.5 75z"></path></g><!----></svg>